<svg width="45" height="36" viewBox="0 0 45 36" fill="none" xmlns="http://www.w3.org/2000/svg">
<path fill-rule="evenodd" clip-rule="evenodd" d="M5.19174 10.8252C5.33557 10.6542 5.50644 10.5185 5.69456 10.4259C5.88267 10.3334 6.08434 10.2857 6.28801 10.2857C6.49168 10.2857 6.69334 10.3334 6.88146 10.4259C7.06958 10.5185 7.24044 10.6542 7.38428 10.8252L24.8688 31.564L42.3534 10.8252C42.4973 10.6545 42.6682 10.519 42.8563 10.4266C43.0444 10.3342 43.246 10.2867 43.4496 10.2867C43.6532 10.2867 43.8548 10.3342 44.0429 10.4266C44.231 10.519 44.4019 10.6545 44.5459 10.8252C44.6899 10.9959 44.8041 11.1986 44.882 11.4217C44.9599 11.6447 45 11.8838 45 12.1253C45 12.3667 44.9599 12.6058 44.882 12.8289C44.8041 13.0519 44.6899 13.2546 44.5459 13.4253L25.9651 35.4605C25.8213 35.6315 25.6504 35.7672 25.4623 35.8598C25.2742 35.9523 25.0725 36 24.8688 36C24.6652 36 24.4635 35.9523 24.2754 35.8598C24.0873 35.7672 23.9164 35.6315 23.7726 35.4605L5.19174 13.4253C5.04754 13.2548 4.93314 13.0521 4.85508 12.829C4.77702 12.606 4.73684 12.3668 4.73684 12.1253C4.73684 11.8837 4.77702 11.6446 4.85508 11.4215C4.93314 11.1984 5.04754 10.9958 5.19174 10.8252Z" fill="black"/>
</svg>
