<svg width="16" height="16" viewBox="0 0 16 16" fill="none" xmlns="http://www.w3.org/2000/svg">
<path fill-rule="evenodd" clip-rule="evenodd" d="M4.25175 1.16947C4.33135 1.11575 4.42592 1.07313 4.53002 1.04405C4.63413 1.01497 4.74574 1 4.85846 1C4.97117 1 5.08278 1.01497 5.18689 1.04405C5.29099 1.07313 5.38556 1.11575 5.46516 1.16947L15.7482 8.09174C15.828 8.14532 15.8914 8.20898 15.9346 8.27906C15.9778 8.34914 16 8.42427 16 8.50015C16 8.57603 15.9778 8.65116 15.9346 8.72124C15.8914 8.79132 15.828 8.85498 15.7482 8.90857L5.46516 15.8308C5.30425 15.9391 5.08601 16 4.85846 16C4.6309 16 4.41266 15.9391 4.25175 15.8308C4.09085 15.7225 4.00045 15.5756 4.00045 15.4224C4.00045 15.2692 4.09085 15.1223 4.25175 15.014L13.9299 8.50015L4.25175 1.9863C4.17195 1.93272 4.10864 1.86906 4.06544 1.79898C4.02224 1.72889 4 1.65376 4 1.57789C4 1.50201 4.02224 1.42688 4.06544 1.3568C4.10864 1.28671 4.17195 1.22306 4.25175 1.16947Z" fill="black"/>
</svg>
