<svg width="17" height="19" viewBox="0 0 17 19" fill="none" xmlns="http://www.w3.org/2000/svg">
<path d="M6.11681 1.08535C6.17668 1.12584 6.2289 1.17925 6.27048 1.24254C6.31207 1.30582 6.34221 1.37774 6.35918 1.45419C6.37615 1.53063 6.37962 1.6101 6.36939 1.68806C6.35916 1.76602 6.33543 1.84094 6.29956 1.90854L3.59444 7.0001H13.4056L10.6994 1.90854C10.627 1.77201 10.6055 1.60858 10.6398 1.4542C10.6741 1.29982 10.7612 1.16714 10.8821 1.08535C11.003 1.00356 11.1477 0.979351 11.2844 1.01806C11.4211 1.05676 11.5386 1.15521 11.611 1.29175L14.6444 7.0001H15.9375C16.2193 7.0001 16.4895 7.12653 16.6888 7.35157C16.8881 7.57661 17 7.88183 17 8.20009V9.40008C17 9.71834 16.8881 10.0236 16.6888 10.2486C16.4895 10.4736 16.2193 10.6001 15.9375 10.6001V16C15.9375 16.7957 15.6576 17.5587 15.1595 18.1213C14.6614 18.6839 13.9857 19 13.2812 19H3.71875C3.01427 19 2.33864 18.6839 1.8405 18.1213C1.34235 17.5587 1.0625 16.7957 1.0625 16V10.6001C0.780707 10.6001 0.510456 10.4736 0.311199 10.2486C0.111942 10.0236 0 9.71834 0 9.40008V8.20009C0 7.88183 0.111942 7.57661 0.311199 7.35157C0.510456 7.12653 0.780707 7.0001 1.0625 7.0001H2.35556L5.38688 1.29175C5.42273 1.22413 5.47002 1.16516 5.52605 1.11819C5.58209 1.07122 5.64577 1.03718 5.71345 1.01801C5.78114 0.998847 5.85151 0.994929 5.92053 1.00648C5.98956 1.01804 6.05696 1.04483 6.11681 1.08535ZM2.125 10.6001V16C2.125 16.4774 2.29291 16.9352 2.5918 17.2728C2.89068 17.6104 3.29606 17.8 3.71875 17.8H13.2812C13.7039 17.8 14.1093 17.6104 14.4082 17.2728C14.7071 16.9352 14.875 16.4774 14.875 16V10.6001H2.125ZM1.0625 8.20009V9.40008H15.9375V8.20009H1.0625ZM4.25 11.8001C4.3909 11.8001 4.52602 11.8633 4.62565 11.9758C4.72528 12.0883 4.78125 12.2409 4.78125 12.4001V16C4.78125 16.1592 4.72528 16.3118 4.62565 16.4243C4.52602 16.5368 4.3909 16.6 4.25 16.6C4.1091 16.6 3.97398 16.5368 3.87435 16.4243C3.77472 16.3118 3.71875 16.1592 3.71875 16V12.4001C3.71875 12.2409 3.77472 12.0883 3.87435 11.9758C3.97398 11.8633 4.1091 11.8001 4.25 11.8001ZM6.375 11.8001C6.5159 11.8001 6.65102 11.8633 6.75065 11.9758C6.85028 12.0883 6.90625 12.2409 6.90625 12.4001V16C6.90625 16.1592 6.85028 16.3118 6.75065 16.4243C6.65102 16.5368 6.5159 16.6 6.375 16.6C6.2341 16.6 6.09898 16.5368 5.99935 16.4243C5.89972 16.3118 5.84375 16.1592 5.84375 16V12.4001C5.84375 12.2409 5.89972 12.0883 5.99935 11.9758C6.09898 11.8633 6.2341 11.8001 6.375 11.8001ZM8.5 11.8001C8.6409 11.8001 8.77602 11.8633 8.87565 11.9758C8.97528 12.0883 9.03125 12.2409 9.03125 12.4001V16C9.03125 16.1592 8.97528 16.3118 8.87565 16.4243C8.77602 16.5368 8.6409 16.6 8.5 16.6C8.3591 16.6 8.22398 16.5368 8.12435 16.4243C8.02472 16.3118 7.96875 16.1592 7.96875 16V12.4001C7.96875 12.2409 8.02472 12.0883 8.12435 11.9758C8.22398 11.8633 8.3591 11.8001 8.5 11.8001ZM10.625 11.8001C10.7659 11.8001 10.901 11.8633 11.0007 11.9758C11.1003 12.0883 11.1562 12.2409 11.1562 12.4001V16C11.1562 16.1592 11.1003 16.3118 11.0007 16.4243C10.901 16.5368 10.7659 16.6 10.625 16.6C10.4841 16.6 10.349 16.5368 10.2493 16.4243C10.1497 16.3118 10.0938 16.1592 10.0938 16V12.4001C10.0938 12.2409 10.1497 12.0883 10.2493 11.9758C10.349 11.8633 10.4841 11.8001 10.625 11.8001ZM12.75 11.8001C12.8909 11.8001 13.026 11.8633 13.1257 11.9758C13.2253 12.0883 13.2812 12.2409 13.2812 12.4001V16C13.2812 16.1592 13.2253 16.3118 13.1257 16.4243C13.026 16.5368 12.8909 16.6 12.75 16.6C12.6091 16.6 12.474 16.5368 12.3743 16.4243C12.2747 16.3118 12.2188 16.1592 12.2188 16V12.4001C12.2188 12.2409 12.2747 12.0883 12.3743 11.9758C12.474 11.8633 12.6091 11.8001 12.75 11.8001Z" fill="black"/>
</svg>
