<svg width="512" height="512" viewBox="0 0 512 512" fill="none" xmlns="http://www.w3.org/2000/svg">
<path d="M400.5 345.25C424.527 345.25 447.57 353.125 464.559 367.144C481.549 381.162 491.094 400.175 491.094 420C491.094 439.825 481.549 458.838 464.559 472.856C447.57 486.875 424.527 494.75 400.5 494.75C376.473 494.75 353.43 486.875 336.441 472.856C319.451 458.838 309.906 439.825 309.906 420C309.906 400.175 319.451 381.162 336.441 367.144C353.43 353.125 376.473 345.25 400.5 345.25ZM400.5 512C430.072 512 458.432 502.307 479.342 485.054C500.253 467.8 512 444.4 512 420C512 395.6 500.253 372.2 479.342 354.946C458.432 337.693 430.072 328 400.5 328C370.928 328 342.568 337.693 321.658 354.946C300.747 372.2 289 395.6 289 420C289 444.4 300.747 467.8 321.658 485.054C342.568 502.307 370.928 512 400.5 512ZM449.717 403.109C453.811 399.731 453.811 394.269 449.717 390.927C445.623 387.584 439.002 387.548 434.952 390.927L386.606 430.817L366.135 413.927C362.041 410.548 355.421 410.548 351.37 413.927C347.32 417.305 347.276 422.767 351.37 426.109L379.245 449.109C383.339 452.487 389.96 452.487 394.01 449.109L449.717 403.109Z" fill="#FAAB29"/>
</svg>
