<svg width="98" height="122" viewBox="0 0 98 122" fill="none" xmlns="http://www.w3.org/2000/svg">
<g clip-path="url(#clip0_5_49)">
<path fill-rule="evenodd" clip-rule="evenodd" d="M100.427 12.1072C100.925 12.4573 101.321 12.8732 101.591 13.3311C101.861 13.7889 102 14.2798 102 14.7755C102 15.2713 101.861 15.7621 101.591 16.22C101.321 16.6779 100.925 17.0937 100.427 17.4438L39.9384 60.001L100.427 102.558C101.432 103.266 101.997 104.226 101.997 105.226C101.997 106.227 101.432 107.187 100.427 107.895C99.4209 108.602 98.0569 109 96.6347 109C95.2124 109 93.8484 108.602 92.8428 107.895L28.5735 62.6693C28.0747 62.3192 27.679 61.9033 27.409 61.4454C27.139 60.9876 27 60.4967 27 60.001C27 59.5053 27.139 59.0144 27.409 58.5565C27.679 58.0987 28.0747 57.6828 28.5735 57.3327L92.8428 12.1072C93.3403 11.7562 93.9313 11.4778 94.582 11.2878C95.2326 11.0978 95.9302 11 96.6347 11C97.3391 11 98.0367 11.0978 98.6873 11.2878C99.338 11.4778 99.929 11.7562 100.427 12.1072Z" fill="#FFFCFC"/>
</g>
<defs>
<clipPath id="clip0_5_49">
<rect width="98" height="122" fill="white"/>
</clipPath>
</defs>
</svg>
