<svg width="78" height="61" viewBox="0 0 78 61" fill="none" xmlns="http://www.w3.org/2000/svg">
<path d="M41.4375 21.3501C41.4375 20.8445 41.1807 20.3597 40.7236 20.0022C40.2665 19.6447 39.6465 19.4438 39 19.4438C38.3535 19.4438 37.7335 19.6447 37.2764 20.0022C36.8193 20.3597 36.5625 20.8445 36.5625 21.3501V32.4063H21.9375C21.291 32.4063 20.671 32.6072 20.2139 32.9647C19.7568 33.3222 19.5 33.807 19.5 34.3126C19.5 34.8182 19.7568 35.303 20.2139 35.6605C20.671 36.018 21.291 36.2188 21.9375 36.2188H39C39.6465 36.2188 40.2665 36.018 40.7236 35.6605C41.1807 35.303 41.4375 34.8182 41.4375 34.3126V21.3501Z" fill="white"/>
<path d="M31.6875 3.8125C31.6875 3.30693 31.9443 2.82207 32.4014 2.46458C32.8586 2.10709 33.4785 1.90625 34.125 1.90625H43.875C44.5215 1.90625 45.1415 2.10709 45.5986 2.46458C46.0557 2.82207 46.3125 3.30693 46.3125 3.8125C46.3125 4.31807 46.0557 4.80293 45.5986 5.16042C45.1415 5.51791 44.5215 5.71875 43.875 5.71875V7.89187C50.505 8.63912 56.5208 10.8656 61.347 14.1444C61.3662 14.1277 61.3857 14.1111 61.4055 14.0948L63.1313 12.7452L61.4055 11.3994C60.9478 11.0419 60.6904 10.5569 60.69 10.0511C60.6895 9.54525 60.946 9.05997 61.4031 8.70203C61.8601 8.34409 62.4803 8.1428 63.1271 8.14244C63.7739 8.14208 64.3944 8.34269 64.8521 8.70013L71.7454 14.0948C71.9782 14.2707 72.1639 14.481 72.2916 14.7136C72.4194 14.9461 72.4866 15.1963 72.4894 15.4494C72.4922 15.7025 72.4306 15.9535 72.308 16.1878C72.1854 16.4221 72.0045 16.6349 71.7756 16.8139C71.5467 16.9929 71.2746 17.1344 70.975 17.2303C70.6755 17.3261 70.3545 17.3743 70.0308 17.3721C69.7072 17.3699 69.3873 17.3173 69.09 17.2174C68.7926 17.1175 68.5236 16.9723 68.2988 16.7902L66.5779 15.4406L64.8521 16.7902C64.8313 16.8058 64.8102 16.821 64.7888 16.836C69.7524 21.317 72.6668 26.9631 73.072 32.8832C73.4773 38.8033 71.3504 44.6604 67.027 49.5303C62.7035 54.4001 56.4296 58.0055 49.1954 59.7775C41.9611 61.5495 34.1783 61.3872 27.0751 59.3161C19.9718 57.2451 13.9526 53.3833 9.96722 48.3402C5.98181 43.297 4.25714 37.3595 5.06534 31.4647C5.87353 25.57 9.16859 20.0534 14.4306 15.7857C19.6925 11.5179 26.6218 8.74191 34.125 7.89569V5.71875C33.4785 5.71875 32.8586 5.51791 32.4014 5.16042C31.9443 4.80293 31.6875 4.31807 31.6875 3.8125ZM39 11.4375C35.1588 11.4378 31.3554 12.0297 27.8067 13.1795C24.2581 14.3293 21.0337 16.0145 18.3178 18.1388C12.8329 22.429 9.7518 28.2476 9.75244 34.3144C9.75309 40.3812 12.8354 46.1994 18.3213 50.4889C23.8072 54.7785 31.2473 57.188 39.0049 57.1875C46.7625 57.187 54.2021 54.7765 59.687 50.4862C65.172 46.196 68.2531 40.3774 68.2524 34.3106C68.2518 28.2438 65.1695 22.4256 59.6836 18.1361C54.1977 13.8465 46.7576 11.437 39 11.4375Z" fill="#FFFDFD"/>
</svg>
