<svg width="313" height="222" viewBox="0 0 313 222" fill="none" xmlns="http://www.w3.org/2000/svg">
<g clip-path="url(#clip0_2_31)">
<path d="M313 34.6875C313 42.4922 304.258 49.6898 289.525 55.5C271.735 62.4809 245.204 67.4238 214.76 68.898C212.498 68.1176 210.236 67.3805 207.852 66.7301C183.765 59.5758 151.732 55.5 117.375 55.5C112.301 55.5 107.349 55.5867 102.397 55.7602L101.725 55.5C86.992 49.6898 78.25 42.4922 78.25 34.6875C78.25 15.5227 130.824 0 195.625 0C260.426 0 313 15.5227 313 34.6875ZM98.2404 69.852C104.476 69.5484 110.895 69.375 117.375 69.375C155.4 69.375 189.145 74.7082 210.603 82.9898C225.763 88.8434 234.75 96.1277 234.75 104.062C234.75 105.797 234.322 107.488 233.466 109.136C230.654 114.859 223.074 120.105 212.07 124.528C212.009 124.571 211.886 124.571 211.825 124.615C211.642 124.702 211.458 124.745 211.275 124.832C189.879 133.243 155.766 138.707 117.375 138.707C80.9398 138.707 48.3561 133.807 26.7762 126.089C25.6146 125.699 24.5143 125.265 23.4139 124.832C8.74199 119.065 0 111.867 0 104.062C0 88.9734 32.6449 76.0957 78.25 71.3695C84.6689 70.7191 91.3324 70.1988 98.2404 69.852ZM254.312 104.062C254.312 94.5668 247.832 86.7621 239.579 80.9086C256.88 79.0008 272.713 75.9656 286.163 72.0199C296.127 69.0715 305.42 65.4293 313 60.9633V76.3125C313 84.6809 302.913 92.3988 286.224 98.3824C277.298 101.591 266.417 104.323 254.19 106.404C254.251 105.623 254.312 104.886 254.312 104.106V104.062ZM234.75 145.688C234.75 153.492 226.008 160.69 211.275 166.5C210.175 166.934 209.074 167.324 207.913 167.757C186.394 175.475 153.81 180.375 117.375 180.375C78.9836 180.375 44.8715 174.912 23.475 166.5C8.74199 160.69 0 153.492 0 145.688V130.338C7.6416 134.804 16.8727 138.446 26.8373 141.395C50.9848 148.549 83.0184 152.625 117.375 152.625C151.732 152.625 183.765 148.549 207.913 141.395C212.681 140.007 217.266 138.403 221.606 136.669C225.336 135.195 228.82 133.547 232.121 131.812C233.038 131.336 233.894 130.815 234.75 130.338V131.812V134.284V145.688ZM254.312 145.688V131.812V120.582C265.928 118.761 276.626 116.463 286.163 113.645C296.127 110.696 305.42 107.054 313 102.588V117.938C313 122.49 309.943 127.043 303.891 131.336C293.927 138.403 276.381 144.213 254.19 147.986C254.251 147.248 254.312 146.468 254.312 145.688ZM117.375 194.25C151.732 194.25 183.765 190.174 207.913 183.02C217.877 180.071 227.17 176.429 234.75 171.963V187.312C234.75 206.477 182.176 222 117.375 222C52.5742 222 0 206.477 0 187.312V171.963C7.6416 176.429 16.8727 180.071 26.8373 183.02C50.9848 190.174 83.0184 194.25 117.375 194.25Z" fill="#FFFBFB"/>
</g>
<defs>
<clipPath id="clip0_2_31">
<rect width="313" height="222" fill="white"/>
</clipPath>
</defs>
</svg>
