<svg width="726" height="726" viewBox="0 0 726 726" fill="none" xmlns="http://www.w3.org/2000/svg">
<g clip-path="url(#clip0_12_4)">
<path d="M125.412 396.941C119.19 403.164 119.19 413.346 125.412 419.569L141.039 435.196L363.142 413.346C389.799 410.73 410.801 389.729 413.417 363.071L435.196 141.039L419.569 125.412C413.346 119.19 403.164 119.19 396.941 125.412L125.412 396.941ZM184.951 479.107L306.432 600.588C312.654 606.81 322.836 606.81 329.059 600.588L600.588 329.059C606.811 322.836 606.811 312.654 600.588 306.432L479.107 184.951L461.147 367.808C456.268 417.235 417.165 456.338 367.808 461.146L184.951 479.107ZM91.4711 453.51C66.5103 428.549 66.5103 387.961 91.4711 363L363 91.4711C387.961 66.5102 428.549 66.5102 453.51 91.4711L634.529 272.49C659.49 297.451 659.49 338.039 634.529 363L363 634.529C338.039 659.49 297.451 659.49 272.49 634.529L91.4711 453.51Z" fill="white"/>
</g>
<defs>
<clipPath id="clip0_12_4">
<rect width="512" height="512" fill="white" transform="translate(0.961426 363) rotate(-45)"/>
</clipPath>
</defs>
</svg>
