<svg width="202" height="150" viewBox="0 0 202 150" fill="none" xmlns="http://www.w3.org/2000/svg">
<g clip-path="url(#clip0_2_20)">
<path d="M101.045 41.3086C72.3683 41.3086 49.2375 56.3379 49.2375 74.9707C49.2375 93.6035 72.3683 108.633 101.045 108.633C129.722 108.633 152.853 93.6035 152.853 74.9707C152.853 56.3379 129.722 41.3086 101.045 41.3086ZM101.045 96.8555C82.5134 96.8555 67.3634 87.041 67.3634 74.9707C67.3634 62.9004 82.4683 53.0859 101.045 53.0859C119.622 53.0859 134.727 62.9004 134.727 74.9707C134.727 87.041 119.577 96.8555 101.045 96.8555ZM167.056 39.9316C167.056 44.2969 161.645 47.7832 154.972 47.7832C148.254 47.7832 142.888 44.2676 142.888 39.9316C142.888 35.5957 148.299 32.0801 154.972 32.0801C161.645 32.0801 167.056 35.5957 167.056 39.9316ZM201.369 47.9004C200.602 37.3828 196.905 28.0664 185.046 20.3906C173.233 12.7148 158.895 10.3125 142.708 9.78516C126.025 9.16992 76.0205 9.16992 59.3375 9.78516C43.1955 10.2832 28.8571 12.6855 16.9987 20.3613C5.14018 28.0371 1.48795 37.3535 0.676343 47.8711C-0.270532 58.7109 -0.270532 91.2012 0.676343 102.041C1.44286 112.559 5.14018 121.875 16.9987 129.551C28.8571 137.227 43.1504 139.629 59.3375 140.156C76.0205 140.771 126.025 140.771 142.708 140.156C158.895 139.658 173.233 137.256 185.046 129.551C196.86 121.875 200.557 112.559 201.369 102.041C202.316 91.2012 202.316 58.7402 201.369 47.9004ZM179.816 113.672C176.299 119.414 169.491 123.838 160.608 126.152C147.307 129.58 115.744 128.789 101.045 128.789C86.346 128.789 54.7384 129.551 41.4821 126.152C32.6446 123.867 25.8362 119.443 22.2741 113.672C16.9987 105.029 18.2161 84.5215 18.2161 74.9707C18.2161 65.4199 17.0438 44.8828 22.2741 36.2695C25.7911 30.5273 32.5996 26.1035 41.4821 23.7891C54.7835 20.3613 86.346 21.1523 101.045 21.1523C115.744 21.1523 147.352 20.3906 160.608 23.7891C169.446 26.0742 176.254 30.498 179.816 36.2695C185.092 44.9121 183.874 65.4199 183.874 74.9707C183.874 84.5215 185.092 105.059 179.816 113.672Z" fill="#444444"/>
</g>
<defs>
<clipPath id="clip0_2_20">
<rect width="202" height="150" fill="white"/>
</clipPath>
</defs>
</svg>
