<svg width="576" height="512" viewBox="0 0 576 512" fill="none" xmlns="http://www.w3.org/2000/svg">
<path d="M451.741 316.136C449.483 311.775 444.71 309 439.469 309C434.228 309 429.499 311.775 427.198 316.136L399.8 368.585L338.614 376.989C333.501 377.703 329.24 381.033 327.663 385.592C326.087 390.151 327.365 395.186 331.029 398.556L375.428 439.429L364.946 497.19C364.094 501.947 366.224 506.784 370.443 509.599C374.661 512.413 380.243 512.77 384.845 510.51L439.512 483.354L494.179 510.51C498.781 512.77 504.363 512.453 508.581 509.599C512.8 506.744 514.93 501.947 514.078 497.19L503.553 439.429L547.952 398.556C551.616 395.186 552.937 390.151 551.318 385.592C549.699 381.033 545.481 377.703 540.368 376.989L479.138 368.585L451.741 316.136Z" fill="#00B67A"/>
</svg>
