<svg width="512" height="512" viewBox="0 0 512 512" fill="none" xmlns="http://www.w3.org/2000/svg">
<path d="M323.8 34.7999C285.6 23.8999 245.7 45.9999 234.8 84.1999L229.1 104.2C225.4 117.2 218.7 129.2 209.6 139.2L158.3 195.6C149.4 205.4 150.1 220.6 159.9 229.5C169.7 238.4 184.9 237.7 193.8 227.9L245.1 171.5C259.2 156 269.5 137.5 275.2 117.4L280.9 97.3999C284.5 84.6999 297.8 77.2999 310.6 80.8999C323.4 84.4999 330.7 97.7999 327.1 110.6L321.4 130.6C315.7 150.5 306.7 169.3 294.8 186.1C289.6 193.4 289 203 293.1 211C297.2 219 305.4 224 314.4 224H448C456.8 224 464 231.2 464 240C464 246.8 459.7 252.7 453.6 255C446.2 257.8 440.6 264 438.7 271.7C436.8 279.4 438.8 287.5 444 293.4C446.5 296.2 448 299.9 448 304C448 311.8 442.4 318.3 435 319.7C426.8 321.3 419.9 327 417 334.8C414.1 342.6 415.4 351.5 420.6 358.1C422.7 360.8 424 364.2 424 368C424 374.7 419.8 380.6 413.8 382.9C402.3 387.4 396.1 399.8 399.4 411.7C399.8 413 400 414.5 400 416C400 424.8 392.8 432 384 432H286.5C273.9 432 261.5 428.3 251 421.3L189.3 380.2C178.3 372.8 163.4 375.8 156 386.9C148.6 398 151.6 412.8 162.7 420.2L224.4 461.3C242.8 473.6 264.4 480.1 286.5 480.1H384C418.7 480.1 446.9 452.5 448 418.1C462.6 406.4 472 388.4 472 368.1C472 363.6 471.5 359.3 470.7 355.1C486.1 343.4 496 324.9 496 304.1C496 297.6 495 291.3 493.2 285.4C504.8 273.7 512 257.7 512 240C512 204.7 483.4 176 448 176H355.7C360.4 165.6 364.4 154.8 367.5 143.8L373.2 123.8C384.1 85.5999 362 45.6999 323.8 34.7999ZM32 192C14.3 192 0 206.3 0 224V448C0 465.7 14.3 480 32 480H96C113.7 480 128 465.7 128 448V224C128 206.3 113.7 192 96 192H32Z" fill="#FFFCFC"/>
</svg>
