<svg width="85" height="54" viewBox="0 0 85 54" fill="none" xmlns="http://www.w3.org/2000/svg">
<path d="M81.1123 13.0869C80.1854 10.5925 77.4545 8.62808 73.987 7.96141C67.7021 6.75 42.5 6.75 42.5 6.75C42.5 6.75 17.2981 6.75 11.013 7.96141C7.54553 8.62819 4.81461 10.5925 3.88772 13.0869C2.20366 17.608 2.20366 27.0409 2.20366 27.0409C2.20366 27.0409 2.20366 36.4738 3.88772 40.995C4.81461 43.4893 7.54553 45.3719 11.013 46.0386C17.2981 47.25 42.5 47.25 42.5 47.25C42.5 47.25 67.7019 47.25 73.987 46.0386C77.4545 45.3719 80.1854 43.4893 81.1123 40.995C82.7964 36.4738 82.7964 27.0409 82.7964 27.0409C82.7964 27.0409 82.7964 17.608 81.1123 13.0869ZM34.2575 35.6053V18.4765L55.3214 27.0411L34.2575 35.6053Z" fill="#444444"/>
</svg>
