<svg width="512" height="514" viewBox="0 0 512 514" fill="none" xmlns="http://www.w3.org/2000/svg">
<path d="M459.37 152.309C459.695 156.874 459.695 161.441 459.695 166.007C459.695 305.269 354.112 465.731 161.137 465.731C101.685 465.731 46.457 448.445 0 418.441C8.447 419.419 16.568 419.745 25.34 419.745C74.395 419.745 119.553 403.113 155.614 374.738C109.482 373.759 70.822 343.428 57.502 301.682C64 302.66 70.497 303.312 77.32 303.312C86.741 303.312 96.163 302.007 104.934 299.725C56.853 289.94 20.791 247.542 20.791 196.338V195.034C34.76 202.861 51.005 207.753 68.222 208.405C39.958 189.488 21.441 157.201 21.441 120.673C21.441 101.104 26.638 83.1666 35.735 67.5117C87.39 131.435 165.035 173.181 252.1 177.748C250.476 169.92 249.501 161.767 249.501 153.614C249.501 95.5598 296.283 48.2698 354.435 48.2698C384.648 48.2698 411.937 60.9893 431.105 81.5363C454.82 76.9705 477.561 68.1642 497.704 56.0973C489.906 80.5585 473.338 101.105 451.572 114.15C472.689 111.868 493.156 105.996 511.998 97.8437C497.706 118.716 479.837 137.305 459.37 152.309Z" fill="#444444"/>
</svg>
