<svg width="576" height="512" viewBox="0 0 576 512" fill="none" xmlns="http://www.w3.org/2000/svg">
<path d="M448.176 362.449C445.837 359.119 440.896 357 435.468 357C430.041 357 425.143 359.119 422.761 362.449L394.389 402.496L331.027 408.913C325.732 409.458 321.319 412.001 319.687 415.482C318.054 418.963 319.378 422.807 323.173 425.38L369.15 456.588L358.295 500.692C357.413 504.324 359.619 508.017 363.987 510.166C368.356 512.316 374.136 512.588 378.901 510.863L435.512 490.128L492.124 510.863C496.889 512.588 502.669 512.346 507.038 510.166C511.406 507.987 513.612 504.324 512.73 500.692L501.831 456.588L547.808 425.38C551.603 422.807 552.971 418.963 551.294 415.482C549.617 412.001 545.249 409.458 539.954 408.913L476.548 402.496L448.176 362.449Z" fill="#FFFCFC"/>
</svg>
